<svg width="64" height="64" viewBox="0 0 64 64" fill="none" xmlns="http://www.w3.org/2000/svg">
<rect width="64" height="64" rx="32" fill="#1C4480"/>
<path d="M24.9987 15.3334H38.9987C44.332 15.3334 48.6654 19.6667 48.6654 25V39C48.6654 41.5638 47.6469 44.0226 45.8341 45.8354C44.0212 47.6483 41.5625 48.6667 38.9987 48.6667H24.9987C19.6654 48.6667 15.332 44.3334 15.332 39V25C15.332 22.4363 16.3505 19.9775 18.1633 18.1647C19.9762 16.3518 22.4349 15.3334 24.9987 15.3334ZM24.6654 18.6667C23.0741 18.6667 21.5479 19.2988 20.4227 20.4241C19.2975 21.5493 18.6654 23.0754 18.6654 24.6667V39.3334C18.6654 42.65 21.3487 45.3334 24.6654 45.3334H39.332C40.9233 45.3334 42.4495 44.7012 43.5747 43.576C44.6999 42.4508 45.332 40.9247 45.332 39.3334V24.6667C45.332 21.35 42.6487 18.6667 39.332 18.6667H24.6654ZM40.7487 21.1667C41.3012 21.1667 41.8311 21.3862 42.2218 21.7769C42.6125 22.1676 42.832 22.6975 42.832 23.25C42.832 23.8026 42.6125 24.3325 42.2218 24.7232C41.8311 25.1139 41.3012 25.3334 40.7487 25.3334C40.1962 25.3334 39.6663 25.1139 39.2756 24.7232C38.8849 24.3325 38.6654 23.8026 38.6654 23.25C38.6654 22.6975 38.8849 22.1676 39.2756 21.7769C39.6663 21.3862 40.1962 21.1667 40.7487 21.1667ZM31.9987 23.6667C34.2088 23.6667 36.3285 24.5447 37.8913 26.1075C39.4541 27.6703 40.332 29.7899 40.332 32C40.332 34.2102 39.4541 36.3298 37.8913 37.8926C36.3285 39.4554 34.2088 40.3334 31.9987 40.3334C29.7886 40.3334 27.6689 39.4554 26.1061 37.8926C24.5433 36.3298 23.6654 34.2102 23.6654 32C23.6654 29.7899 24.5433 27.6703 26.1061 26.1075C27.6689 24.5447 29.7886 23.6667 31.9987 23.6667ZM31.9987 27C30.6726 27 29.4008 27.5268 28.4632 28.4645C27.5255 29.4022 26.9987 30.674 26.9987 32C26.9987 33.3261 27.5255 34.5979 28.4632 35.5356C29.4008 36.4733 30.6726 37 31.9987 37C33.3248 37 34.5966 36.4733 35.5342 35.5356C36.4719 34.5979 36.9987 33.3261 36.9987 32C36.9987 30.674 36.4719 29.4022 35.5342 28.4645C34.5966 27.5268 33.3248 27 31.9987 27Z" fill="white"/>
</svg>
