<svg width="64" height="64" viewBox="0 0 64 64" fill="none" xmlns="http://www.w3.org/2000/svg">
<g clip-path="url(#clip0_563_1942)">
<path d="M64 32C64 14.3269 49.6731 0 32 0C14.3269 0 0 14.3269 0 32C0 49.6731 14.3269 64 32 64C49.6731 64 64 49.6731 64 32Z" fill="#1C4480"/>
<path d="M41.3075 17.375H46.2695L35.429 29.765L48.182 46.625H38.195L30.374 36.3995L21.425 46.625H16.46L28.055 33.3725L15.8225 17.375H26.06L33.1295 26.7215L41.3045 17.375H41.3075ZM39.566 43.655H42.3155L24.5675 20.189H21.617L39.566 43.655Z" fill="white"/>
</g>
<defs>
<clipPath id="clip0_563_1942">
<rect width="64" height="64" fill="white"/>
</clipPath>
</defs>
</svg>
