<svg width="64" height="64" viewBox="0 0 64 64" fill="none" xmlns="http://www.w3.org/2000/svg">
<rect width="64" height="64" rx="32" fill="#1C4480"/>
<path d="M49.4331 22C48.1497 22.5833 46.7664 22.9666 45.3331 23.15C46.7997 22.2666 47.9331 20.8666 48.4664 19.1833C47.0831 20.0166 45.5497 20.6 43.9331 20.9333C42.6164 19.5 40.7664 18.6666 38.6664 18.6666C34.7497 18.6666 31.5497 21.8666 31.5497 25.8166C31.5497 26.3833 31.6164 26.9333 31.7331 27.45C25.7997 27.15 20.5164 24.3 16.9997 19.9833C16.3831 21.0333 16.0331 22.2666 16.0331 23.5666C16.0331 26.05 17.2831 28.25 19.2164 29.5C18.0331 29.5 16.9331 29.1666 15.9664 28.6666V28.7166C15.9664 32.1833 18.4331 35.0833 21.6997 35.7333C20.651 36.0203 19.5499 36.0602 18.4831 35.85C18.9358 37.2708 19.8223 38.514 21.0181 39.4048C22.2139 40.2957 23.6588 40.7894 25.1497 40.8166C22.6225 42.8174 19.4897 43.8988 16.2664 43.8833C15.6997 43.8833 15.1331 43.85 14.5664 43.7833C17.7331 45.8166 21.4997 47 25.5331 47C38.6664 47 45.8831 36.1 45.8831 26.65C45.8831 26.3333 45.8831 26.0333 45.8664 25.7166C47.2664 24.7166 48.4664 23.45 49.4331 22Z" fill="white"/>
</svg>
