<svg width="64" height="64" viewBox="0 0 64 64" fill="none" xmlns="http://www.w3.org/2000/svg">
<rect width="64" height="64" rx="32" fill="#1C4480"/>
<g clip-path="url(#clip0_520_1407)">
<path d="M32 12C20.966 12 12 20.966 12 32C12 43.034 20.966 52 32 52C43.0016 52 51.9428 43.0852 51.9952 32.096C51.9983 32.0641 51.9999 32.0321 52 32C51.9999 31.9661 51.998 31.9321 51.9944 31.8984C51.9944 31.8968 51.9944 31.8952 51.9944 31.8936C51.9364 20.9096 42.998 12 32 12ZM31 14.108V22.7344C28.5868 22.6624 26.3024 22.3328 24.2376 21.8032C24.6036 20.806 25.0192 19.8812 25.478 19.0476C27.018 16.2516 28.9604 14.5344 31 14.108ZM33 14.108C35.04 14.534 36.9824 16.252 38.522 19.048C38.9808 19.8812 39.3964 20.806 39.7624 21.8032C37.6976 22.3328 35.4132 22.6628 33 22.7344V14.108ZM25.8352 15.08C25.0536 15.9424 24.346 16.956 23.7256 18.0824C23.1952 19.0464 22.7236 20.1024 22.314 21.2308C21.1196 20.8228 20.022 20.3456 19.0476 19.8088C18.9808 19.7724 18.9184 19.7344 18.8532 19.6972C20.7852 17.6307 23.1772 16.049 25.8352 15.0804V15.08ZM38.1648 15.08C40.8228 16.0487 43.2149 17.6306 45.1468 19.6972C45.0816 19.7344 45.0188 19.7724 44.9524 19.8092C43.978 20.3452 42.88 20.8236 41.6852 21.2316C41.2764 20.1028 40.8052 19.0464 40.2744 18.0824C39.654 16.956 38.9464 15.9424 38.1648 15.08ZM17.554 21.254C17.728 21.358 17.902 21.462 18.0828 21.562C19.1788 22.1656 20.3928 22.694 21.7 23.1392C21.0304 25.532 20.6288 28.19 20.5516 31H14.0288C14.218 27.475 15.4444 24.0844 17.554 21.254ZM46.446 21.254C48.5556 24.0844 49.782 27.475 49.9712 31H43.4416C43.3644 28.1908 42.9644 25.5328 42.2968 23.14C43.6052 22.6948 44.82 22.166 45.9172 21.5616C46.0976 21.4624 46.272 21.358 46.446 21.254ZM23.6228 23.7132C25.8888 24.3036 28.3776 24.6576 31 24.7296V31H22.5532C22.6308 28.3812 23.0116 25.912 23.6228 23.7132ZM40.3772 23.7132C40.9884 25.912 41.3692 28.3812 41.4468 31H33V24.7288C35.622 24.6568 38.1116 24.3032 40.3772 23.7132ZM14.0292 33H20.5516C20.6288 35.81 21.0304 38.4676 21.7 40.86C20.3932 41.306 19.1792 41.8348 18.0828 42.4384C17.9024 42.5376 17.728 42.6424 17.554 42.7464C15.4444 39.9159 14.2184 36.5252 14.0292 33ZM22.5532 33H31V39.264C28.3768 39.336 25.888 39.692 23.622 40.2836C23.0112 38.0856 22.6308 35.6176 22.5532 33ZM33 33H41.4468C41.3692 35.6176 40.9888 38.0856 40.378 40.2836C38.112 39.692 35.6232 39.3364 33 39.264V33ZM43.442 33H49.9712C49.782 36.525 48.5556 39.9156 46.446 42.746C46.272 42.642 46.098 42.538 45.9172 42.438C44.8204 41.834 43.6052 41.3052 42.2976 40.8592C42.9656 38.4668 43.3652 35.8092 43.442 33ZM31 41.2656V49.892C28.96 49.466 27.0176 47.748 25.478 44.952C25.0192 44.1188 24.6036 43.194 24.2376 42.1968C26.3024 41.6672 28.5868 41.3372 31 41.2656ZM33 41.2656C35.4132 41.3376 37.6976 41.6672 39.7624 42.1968C39.3964 43.194 38.9808 44.1188 38.522 44.9524C36.982 47.7484 35.0396 49.466 33 49.8924V41.2656ZM41.6852 42.768C42.88 43.176 43.978 43.654 44.9524 44.1908C45.0192 44.2272 45.0816 44.2652 45.1468 44.3024C43.2149 46.369 40.8228 47.9509 38.1648 48.9196C38.9464 48.0572 39.654 47.0436 40.2744 45.9172C40.8048 44.9532 41.276 43.8972 41.6852 42.768ZM22.314 42.7688C22.7236 43.8972 23.1952 44.9532 23.726 45.9172C24.346 47.0436 25.0536 48.0572 25.8352 48.9196C23.1772 47.9509 20.7851 46.369 18.8532 44.3024C18.9184 44.2652 18.9812 44.2272 19.0476 44.1904C20.022 43.6544 21.1196 43.1768 22.314 42.7688Z" fill="white"/>
</g>
<defs>
<clipPath id="clip0_520_1407">
<rect width="40" height="40" fill="white" transform="translate(12 12)"/>
</clipPath>
</defs>
</svg>
